Coordinates
version=1
nRows=15
nColumns=63
inDegrees=yes

Units are S.I. units (second, meters, Newtons, ...)
If the header above contains a line with 'inDegrees', this indicates whether rotational values are in degrees (yes) or radians (no).

endheader
time	pelvis_tilt	pelvis_list	pelvis_rotation	pelvis_tx	pelvis_ty	pelvis_tz	hip_flexion_r	hip_adduction_r	hip_rotation_r	knee_angle_r	knee_angle_r_beta	ankle_angle_r	subtalar_angle_r	mtp_angle_r	hip_flexion_l	hip_adduction_l	hip_rotation_l	knee_angle_l	knee_angle_l_beta	ankle_angle_l	subtalar_angle_l	mtp_angle_l	L5_S1_Flex_Ext	L5_S1_Lat_Bending	L5_S1_axial_rotation	L4_L5_Flex_Ext	L4_L5_Lat_Bending	L4_L5_axial_rotation	L3_L4_Flex_Ext	L3_L4_Lat_Bending	L3_L4_axial_rotation	L2_L3_Flex_Ext	L2_L3_Lat_Bending	L2_L3_axial_rotation	L1_L2_Flex_Ext	L1_L2_Lat_Bending	L1_L2_axial_rotation	L1_T12_Flex_Ext	L1_T12_Lat_Bending	L1_T12_axial_rotation	Abs_r3	Abs_r2	Abs_r1	Abs_t1	Abs_t2	neck_flexion	neck_bending	neck_rotation	arm_flex_r	arm_add_r	arm_rot_r	elbow_flex_r	pro_sup_r	wrist_flex_r	wrist_dev_r	arm_flex_l	arm_add_l	arm_rot_l	elbow_flex_l	pro_sup_l	wrist_flex_l	wrist_dev_l
0.000000	3.597222	-3.348635	96.284115	0.169580	0.491024	0.975559	6.991806	4.840692	-9.540849	19.102804	0.333407	52.430884	14.362782	0.000000	4.141806	-1.339140	-0.921147	15.523016	0.270928	50.250890	-0.879714	0.000000	0.308071	0.802086	0.455135	0.572119	1.066774	0.483581	0.506130	1.950191	0.483581	0.352095	1.950191	0.398244	0.286075	1.635613	0.369798	0.176032	1.242431	0.341352	2.200523	9.073354	2.531327	0.000000	0.000000	19.306061	-5.460305	-9.464785	17.612729	-7.136251	64.662521	38.714068	53.407120	18.422306	20.804428	22.018930	-0.314208	81.555624	34.614616	48.915909	6.840024	3.109499
0.016667	3.362771	-3.284781	96.134542	0.170031	0.490375	0.975737	7.371391	4.691000	-8.564106	20.102540	0.350856	52.573903	13.094371	0.000000	4.043419	-0.997935	-0.543053	15.670158	0.273496	50.017834	-1.636523	0.000000	0.296621	0.771081	0.547550	0.550855	1.025538	0.581772	0.487319	1.874807	0.581772	0.339008	1.874807	0.479106	0.275442	1.572389	0.444884	0.169489	1.194405	0.410663	2.118735	8.722625	3.045309	0.000000	0.000000	19.304293	-5.327265	-9.851704	17.317283	-7.206553	64.127969	39.051300	51.421721	17.594781	21.364686	22.417972	-0.420306	82.909014	35.023464	45.223414	6.810695	4.227941
0.033333	3.158633	-3.233675	96.023372	0.170391	0.489847	0.975867	7.679865	4.553557	-7.773249	20.928764	0.365276	52.702531	12.042960	0.000000	3.968153	-0.703402	-0.216015	15.790949	0.275604	49.836878	-2.270119	0.000000	0.287433	0.744034	0.624337	0.533791	0.989565	0.663358	0.472223	1.809044	0.663358	0.328507	1.809044	0.546295	0.266910	1.517234	0.507274	0.164239	1.152508	0.468253	2.053104	8.416659	3.472374	0.000000	0.000000	19.304906	-5.228891	-10.186575	17.072902	-7.266991	63.708802	39.322027	49.771778	16.888556	21.848778	22.752333	-0.506790	84.047761	35.357678	42.194623	6.749009	5.129874
0.050000	2.982764	-3.193752	95.946814	0.170670	0.489428	0.975957	7.922833	4.428171	-7.151363	21.595728	0.376917	52.816603	11.189693	0.000000	3.913539	-0.452302	0.063471	15.888110	0.277300	49.702465	-2.790802	0.000000	0.280261	0.720720	0.686541	0.520472	0.958557	0.729450	0.460440	1.752358	0.729450	0.320310	1.752358	0.600724	0.260250	1.469692	0.557815	0.160141	1.116395	0.514906	2.001874	8.152927	3.818337	0.000000	0.000000	19.307306	-5.160821	-10.469314	16.876288	-7.317933	63.395577	39.531620	48.433809	16.295463	22.259736	23.024450	-0.575803	84.981506	35.624826	39.770671	6.657365	5.837510
0.066667	2.833114	-3.163444	95.901080	0.170876	0.489110	0.976011	8.105903	4.314651	-6.681533	22.117684	0.386026	52.915956	10.515716	0.000000	3.877109	-0.241398	0.298911	15.964363	0.278631	49.609039	-3.208871	0.000000	0.274859	0.700916	0.735209	0.510441	0.932218	0.781159	0.451566	1.704207	0.781159	0.314137	1.704207	0.643307	0.255234	1.429308	0.597357	0.157055	1.085719	0.551406	1.963293	7.928903	4.089009	0.000000	0.000000	19.310896	-5.118692	-10.699837	16.724142	-7.359750	63.178851	39.685451	47.384332	15.807336	22.600596	23.236761	-0.629492	85.719894	35.832479	37.892695	6.538166	6.373061
0.083333	2.707637	-3.141186	95.882378	0.171017	0.488882	0.976035	8.234679	4.212805	-6.346845	22.508884	0.392854	53.000426	10.002173	0.000000	3.856392	-0.067453	0.493809	16.022430	0.279644	49.551043	-3.534626	0.000000	0.270983	0.684399	0.771384	0.503243	0.910251	0.819595	0.445198	1.664048	0.819595	0.309706	1.664048	0.674961	0.251635	1.395627	0.626749	0.154840	1.060134	0.578538	1.935605	7.742059	4.290206	0.000000	0.000000	19.315081	-5.098138	-10.878062	16.613163	-7.392808	63.049182	39.788889	46.599865	15.416006	22.874392	23.391701	-0.670002	86.272564	35.988205	36.501828	6.393814	6.758741
0.100000	2.604286	-3.125412	95.886920	0.171102	0.488734	0.976034	8.314770	4.122443	-6.130384	22.783580	0.397648	53.069850	9.630210	0.000000	3.848922	0.072771	0.651672	16.065031	0.280388	49.522921	-3.778366	0.000000	0.268386	0.670946	0.796113	0.498420	0.892358	0.845870	0.440932	1.631337	0.845870	0.306739	1.631337	0.696599	0.249223	1.368192	0.646842	0.153356	1.039295	0.597085	1.917055	7.589870	4.427740	0.000000	0.000000	19.319268	-5.094798	-11.003906	16.540054	-7.417477	62.997127	39.847307	46.056927	15.113307	23.084156	23.491707	-0.699478	86.649161	36.099573	35.539207	6.226709	7.016761
0.116667	2.521014	-3.114554	95.910914	0.171140	0.488655	0.976014	8.351780	4.043373	-6.015237	22.956024	0.400658	53.124064	9.380971	0.000000	3.852229	0.182512	0.776004	16.094890	0.280909	49.519118	-3.950390	0.000000	0.266823	0.660332	0.810440	0.495517	0.878242	0.861093	0.438364	1.605531	0.861093	0.304952	1.605531	0.709135	0.247772	1.346549	0.658483	0.152463	1.022854	0.607830	1.905891	7.469808	4.507425	0.000000	0.000000	19.322859	-5.104309	-11.077286	16.501514	-7.434126	63.013243	39.866075	45.732035	14.891071	23.232923	23.539216	-0.720066	86.859325	36.174153	34.945968	6.039253	7.169334
0.133333	2.455773	-3.107047	95.950573	0.171139	0.488635	0.975981	8.351317	3.975403	-5.984489	23.040469	0.402132	53.162904	9.235602	0.000000	3.863844	0.265006	0.870310	16.114727	0.281255	49.534076	-4.061000	0.000000	0.266048	0.652335	0.815412	0.494078	0.867606	0.866375	0.437091	1.586088	0.866375	0.304067	1.586088	0.713485	0.247052	1.330242	0.662522	0.152020	1.010467	0.611559	1.900356	7.379346	4.535074	0.000000	0.000000	19.325261	-5.122305	-11.098118	16.494244	-7.443122	63.088087	39.850564	45.601707	14.741130	23.323726	23.536664	-0.733912	86.912700	36.219514	34.663245	5.833847	7.238673
0.150000	2.406517	-3.101325	96.002104	0.171108	0.488665	0.975940	8.318986	3.918343	-6.021226	23.051165	0.402319	53.186207	9.175247	0.000000	3.881299	0.323493	0.938097	16.127263	0.281474	49.562239	-4.120493	0.000000	0.265816	0.646732	0.812072	0.493647	0.860153	0.862827	0.436709	1.572463	0.862827	0.303801	1.572463	0.710563	0.246837	1.318815	0.659809	0.151887	1.001787	0.609054	1.898697	7.315958	4.516502	0.000000	0.000000	19.325878	-5.144425	-11.066319	16.514945	-7.444836	63.212217	39.806145	45.642462	14.655316	23.359600	23.486488	-0.743160	86.818927	36.243225	34.632175	5.612894	7.246989
0.166667	2.371198	-3.095821	96.061719	0.171054	0.488733	0.975896	8.260394	3.872001	-6.108534	23.002366	0.401467	53.193810	9.181052	0.000000	3.902124	0.361209	0.982868	16.135221	0.281613	49.598051	-4.139169	0.000000	0.265881	0.643298	0.801467	0.493767	0.855586	0.851559	0.436816	1.564115	0.851559	0.303875	1.564115	0.701284	0.246897	1.311813	0.651192	0.151924	0.996469	0.601100	1.899160	7.277116	4.457520	0.000000	0.000000	19.324114	-5.166305	-10.981806	16.560318	-7.439634	63.376189	39.738189	45.830817	14.625464	23.343579	23.391124	-0.749956	86.587649	36.252855	34.793892	5.378794	7.216495
0.183333	2.353155	-3.102771	96.113257	0.171007	0.488814	0.975842	8.203688	3.853086	-6.161330	22.915262	0.399947	53.154850	9.175939	0.000000	3.937118	0.378084	1.007622	16.142705	0.281743	49.625697	-4.147146	0.000000	0.268081	0.642077	0.783352	0.497854	0.853963	0.832311	0.440431	1.561147	0.832311	0.306390	1.561147	0.685433	0.248940	1.309324	0.636473	0.153182	0.994578	0.587514	1.914878	7.263309	4.356767	0.000000	0.000000	19.323967	-5.206949	-10.855211	16.631889	-7.417688	63.673802	39.640931	46.083022	14.666025	23.235263	23.219942	-0.770970	86.113212	36.275709	34.933140	5.199538	7.306541
0.200000	2.339447	-3.089151	96.157288	0.170973	0.488908	0.975833	8.120315	3.834600	-6.249202	22.813884	0.398177	53.110089	9.218118	0.000000	3.951078	0.386170	1.010144	16.157143	0.281995	49.637913	-4.150317	0.000000	0.266957	0.642359	0.764739	0.495767	0.854338	0.812535	0.438584	1.561832	0.812535	0.305106	1.561832	0.669147	0.247897	1.309899	0.621351	0.152539	0.995014	0.573554	1.906850	7.266494	4.253250	0.000000	0.000000	19.332015	-5.201876	-10.671929	16.718947	-7.402488	63.877716	39.558339	46.459778	14.721657	23.130707	23.011904	-0.790782	85.517449	36.315328	35.108480	4.974736	7.425235
0.216667	2.337003	-3.054981	96.222748	0.170890	0.489010	0.975838	8.014051	3.817800	-6.403518	22.711419	0.396389	53.065207	9.313429	0.000000	3.948851	0.375085	0.992053	16.187017	0.282517	49.652637	-4.088957	0.000000	0.264200	0.645362	0.737309	0.490645	0.858332	0.783391	0.434054	1.569134	0.783391	0.301954	1.569134	0.645146	0.245336	1.316023	0.599064	0.150964	0.999666	0.552982	1.887153	7.300469	4.100694	0.000000	0.000000	19.303970	-5.145585	-10.380561	16.834976	-7.392478	64.082571	39.465442	46.998247	14.845107	22.912889	22.733120	-0.793957	84.717051	36.330511	35.510696	4.743699	7.529145
0.233333	2.333374	-3.010905	96.263428	0.170877	0.489112	0.975894	7.901146	3.817358	-6.468611	22.603986	0.394514	52.997853	9.335892	0.000000	3.928342	0.369236	1.010973	16.209693	0.282913	49.619223	-4.112446	0.000000	0.259164	0.648606	0.711686	0.481293	0.862645	0.756166	0.425780	1.577020	0.756166	0.296198	1.577020	0.622725	0.240660	1.322637	0.578245	0.148086	1.004690	0.533764	1.851182	7.337156	3.958183	0.000000	0.000000	19.310176	-5.057945	-10.039735	16.964281	-7.367276	64.253826	39.371229	47.504720	14.923380	22.733775	22.480987	-0.809182	84.057395	36.388723	35.507848	4.433755	7.650303
